<svg version="1.1" xmlns="http://www.w3.org/2000/svg" xmlns:xlink="http://www.w3.org/1999/xlink" width="527.34089" height="394.38242" viewBox="0,0,527.34089,394.38242"><g transform="translate(30.44409,16.02106)"><g data-paper-data="{&quot;isPaintingLayer&quot;:true}" fill="#7f7f7f" fill-rule="nonzero" stroke="#000000" stroke-width="10" stroke-linecap="butt" stroke-linejoin="miter" stroke-miterlimit="10" stroke-dasharray="" stroke-dashoffset="0" style="mix-blend-mode: normal"><path d="M-10.5208,16.43391v-22.38494h501.17398v22.38494z"/><path d="M465.78104,368.37495v-371.83876h26.11577v371.83876z"/><path d="M-25.44409,373.36136v-27.35937h513.61006v27.35938z"/><path d="M-13.00802,367.03575v-378.0568h26.11577v378.0568z"/><path d="M268.04738,124.53221v-113.16831h29.84659v113.16832z"/><path d="M65.33928,78.51871v-16.1669h138.04047v16.1669z"/><path d="M102.64753,121.78662v-8.34182h114.41193v8.34183z"/><path d="M93.94227,255.11104v-141.7713h19.89772v141.7713z"/><path d="M151.14824,220.29002v-63.424h32.33381v63.424z"/><path d="M174.12234,356.29002v-59.424h26.33381v59.424z"/><path d="M261.70133,307.34254v-99.48863h12.95759v99.48863z"/><path d="M402.79065,266.12643v-99.48863h12.95759v99.48863z"/><path d="M319.84713,283.1698v-54.39769h9.50946v54.39769z"/><path d="M240.38843,274.96519v-12.43608h51.90115v12.43608z"/><path d="M301.96864,231.53147v-12.43608h51.90115v12.43608z"/><path d="M373.40571,278.14468v-12.43608h57.20596v12.43608z"/><path d="M45.47206,267.54711v-12.43608h158.5874v12.43608z"/><path d="M322.47207,172.54712v-12.43608h93.2236v12.43608z"/><path d="M453.88787,172.54712v-12.43608h23.894v12.43608z"/><path d="M9.47205,311.54711v-12.43608h112.36263v12.43608z"/><path d="M358.59439,88.76046c0,-16.13487 13.0799,-29.21478 29.21478,-29.21478c16.13488,0 29.21477,13.0799 29.21477,29.21478c0,16.13487 -13.0799,29.21478 -29.21477,29.21478c-16.13488,0 -29.21478,-13.0799 -29.21478,-29.21478z"/><path d=""/><path d=""/><path d=""/><path d=""/><path d=""/><path d="M28.88891,175.10634c0,-1.38071 1.11929,-2.5 2.5,-2.5c1.38071,0 2.5,1.11929 2.5,2.5c0,1.38071 -1.11929,2.5 -2.5,2.5c-1.38071,0 -2.5,-1.11929 -2.5,-2.5z"/><path d="M47.06699,197.17973c0,-1.38071 1.11929,-2.5 2.5,-2.5c1.38071,0 2.5,1.11929 2.5,2.5c0,1.38071 -1.11929,2.5 -2.5,2.5c-1.38071,0 -2.5,-1.11929 -2.5,-2.5z"/><path d="M69.14038,193.28442c0,-1.38071 1.11929,-2.5 2.5,-2.5c1.38071,0 2.5,1.11929 2.5,2.5c0,1.38071 -1.11929,2.5 -2.5,2.5c-1.38071,0 -2.5,-1.11929 -2.5,-2.5z"/><path d="M34.08265,219.25311c0,-1.38071 1.11929,-2.5 2.5,-2.5c1.38071,0 2.5,1.11929 2.5,2.5c0,1.38071 -1.11929,2.5 -2.5,2.5c-1.38071,0 -2.5,-1.11929 -2.5,-2.5z"/><path d="M79.52785,168.61417c0,-1.38071 1.11929,-2.5 2.5,-2.5c1.38071,0 2.5,1.11929 2.5,2.5c0,1.38071 -1.11929,2.5 -2.5,2.5c-1.38071,0 -2.5,-1.11929 -2.5,-2.5z"/><path d="M40.57483,146.54079c0,-1.38071 1.11929,-2.5 2.5,-2.5c1.38071,0 2.5,1.11929 2.5,2.5c0,1.38071 -1.11929,2.5 -2.5,2.5c-1.38071,0 -2.5,-1.11929 -2.5,-2.5z"/><path d="M57.45448,137.45175c0,-1.38071 1.11929,-2.5 2.5,-2.5c1.38071,0 2.5,1.11929 2.5,2.5c0,1.38071 -1.11929,2.5 -2.5,2.5c-1.38071,0 -2.5,-1.11929 -2.5,-2.5z"/><path d="M57.45448,163.42043c0,-1.38071 1.11929,-2.5 2.5,-2.5c1.38071,0 2.5,1.11929 2.5,2.5c0,1.38071 -1.11929,2.5 -2.5,2.5c-1.38071,0 -2.5,-1.11929 -2.5,-2.5z"/><path d="M65.24507,219.25311c0,-1.38071 1.11929,-2.5 2.5,-2.5c1.38071,0 2.5,1.11929 2.5,2.5c0,1.38071 -1.11929,2.5 -2.5,2.5c-1.38071,0 -2.5,-1.11929 -2.5,-2.5z"/><path d="M80.82628,237.43119c0,-1.38071 1.11929,-2.5 2.5,-2.5c1.38071,0 2.5,1.11929 2.5,2.5c0,1.38071 -1.11929,2.5 -2.5,2.5c-1.38071,0 -2.5,-1.11929 -2.5,-2.5z"/></g></g></svg>