<svg version="1.1" xmlns="http://www.w3.org/2000/svg" xmlns:xlink="http://www.w3.org/1999/xlink" width="517.34088" height="384.38242" viewBox="0,0,517.34088,384.38242"><g transform="translate(25.44409,11.02107)"><g data-paper-data="{&quot;isPaintingLayer&quot;:true}" fill="#7f7f7f" fill-rule="nonzero" stroke="none" stroke-linecap="butt" stroke-linejoin="miter" stroke-miterlimit="10" stroke-dasharray="" stroke-dashoffset="0" style="mix-blend-mode: normal"><path d="M-10.5208,16.4339v-22.38494h501.17398v22.38494z" stroke-width="0"/><path d="M465.78103,368.37494v-371.83876h26.11577v371.83876z" stroke-width="0"/><path d="M-25.44409,373.36135v-27.35937h513.61006v27.35938z" stroke-width="0"/><path d="M-13.00802,367.03574v-378.0568h26.11577v378.0568z" stroke-width="0"/><path d="M268.04738,124.5322v-113.16831h29.84659v113.16832z" stroke-width="0"/><path d="M65.33928,78.5187v-16.1669h138.04047v16.1669z" stroke-width="0"/><path d="M102.64753,121.78661v-8.34182h114.41193v8.34183z" stroke-width="0"/><path d="M93.94227,255.11103v-141.7713h19.89772v141.7713z" stroke-width="0"/><path d="M151.14824,220.29001v-63.424h32.33381v63.424z" stroke-width="0"/><path d="M174.12234,356.29001v-59.424h26.33381v59.424z" stroke-width="0"/><path d="M261.70133,307.34254v-99.48863h12.95759v99.48863z" stroke-width="0"/><path d="M402.79064,266.12642v-99.48863h12.95759v99.48863z" stroke-width="0"/><path d="M319.84713,283.16979v-54.39769h9.50946v54.39769z" stroke-width="0"/><path d="M240.38843,274.96518v-12.43608h51.90115v12.43608z" stroke-width="0"/><path d="M301.96864,231.53146v-12.43608h51.90115v12.43608z" stroke-width="0"/><path d="M373.4057,278.14468v-12.43608h57.20596v12.43608z" stroke-width="0"/><path d="M45.47206,267.54711v-12.43608h158.5874v12.43608z" stroke-width="0"/><path d="M322.47206,172.54711v-12.43608h93.2236v12.43608z" stroke-width="0"/><path d="M453.88786,172.54711v-12.43608h23.894v12.43608z" stroke-width="0"/><path d="M9.47205,311.54711v-12.43608h112.36263v12.43608z" stroke-width="0"/><path d="M358.59438,88.76045c0,-16.13487 13.0799,-29.21478 29.21478,-29.21478c16.13488,0 29.21477,13.0799 29.21477,29.21478c0,16.13487 -13.0799,29.21478 -29.21477,29.21478c-16.13488,0 -29.21478,-13.0799 -29.21478,-29.21478z" stroke-width="0"/><path d="" stroke-width="0.5"/><path d="" stroke-width="0.5"/><path d="" stroke-width="0.5"/><path d="" stroke-width="0.5"/><path d="" stroke-width="0.5"/><path d="M28.88891,175.10633c0,-1.38071 1.11929,-2.5 2.5,-2.5c1.38071,0 2.5,1.11929 2.5,2.5c0,1.38071 -1.11929,2.5 -2.5,2.5c-1.38071,0 -2.5,-1.11929 -2.5,-2.5z" stroke-width="0.5"/><path d="M47.06699,197.17972c0,-1.38071 1.11929,-2.5 2.5,-2.5c1.38071,0 2.5,1.11929 2.5,2.5c0,1.38071 -1.11929,2.5 -2.5,2.5c-1.38071,0 -2.5,-1.11929 -2.5,-2.5z" stroke-width="0.5"/><path d="M69.14038,193.28441c0,-1.38071 1.11929,-2.5 2.5,-2.5c1.38071,0 2.5,1.11929 2.5,2.5c0,1.38071 -1.11929,2.5 -2.5,2.5c-1.38071,0 -2.5,-1.11929 -2.5,-2.5z" stroke-width="0.5"/><path d="M34.08265,219.2531c0,-1.38071 1.11929,-2.5 2.5,-2.5c1.38071,0 2.5,1.11929 2.5,2.5c0,1.38071 -1.11929,2.5 -2.5,2.5c-1.38071,0 -2.5,-1.11929 -2.5,-2.5z" stroke-width="0.5"/><path d="M79.52785,168.61416c0,-1.38071 1.11929,-2.5 2.5,-2.5c1.38071,0 2.5,1.11929 2.5,2.5c0,1.38071 -1.11929,2.5 -2.5,2.5c-1.38071,0 -2.5,-1.11929 -2.5,-2.5z" stroke-width="0.5"/><path d="M40.57483,146.54078c0,-1.38071 1.11929,-2.5 2.5,-2.5c1.38071,0 2.5,1.11929 2.5,2.5c0,1.38071 -1.11929,2.5 -2.5,2.5c-1.38071,0 -2.5,-1.11929 -2.5,-2.5z" stroke-width="0.5"/><path d="M57.45448,137.45174c0,-1.38071 1.11929,-2.5 2.5,-2.5c1.38071,0 2.5,1.11929 2.5,2.5c0,1.38071 -1.11929,2.5 -2.5,2.5c-1.38071,0 -2.5,-1.11929 -2.5,-2.5z" stroke-width="0.5"/><path d="M57.45448,163.42042c0,-1.38071 1.11929,-2.5 2.5,-2.5c1.38071,0 2.5,1.11929 2.5,2.5c0,1.38071 -1.11929,2.5 -2.5,2.5c-1.38071,0 -2.5,-1.11929 -2.5,-2.5z" stroke-width="0.5"/><path d="M65.24507,219.2531c0,-1.38071 1.11929,-2.5 2.5,-2.5c1.38071,0 2.5,1.11929 2.5,2.5c0,1.38071 -1.11929,2.5 -2.5,2.5c-1.38071,0 -2.5,-1.11929 -2.5,-2.5z" stroke-width="0.5"/><path d="M80.82628,237.43118c0,-1.38071 1.11929,-2.5 2.5,-2.5c1.38071,0 2.5,1.11929 2.5,2.5c0,1.38071 -1.11929,2.5 -2.5,2.5c-1.38071,0 -2.5,-1.11929 -2.5,-2.5z" stroke-width="0.5"/></g></g></svg>