<svg version="1.1" xmlns="http://www.w3.org/2000/svg" xmlns:xlink="http://www.w3.org/1999/xlink" width="519.46152" height="384.38242" viewBox="0,0,519.46152,384.38242"><g transform="translate(26.50439,11.02103)"><g data-paper-data="{&quot;isPaintingLayer&quot;:true}" fill="#7f7f7f" fill-rule="nonzero" stroke="none" stroke-linecap="butt" stroke-linejoin="miter" stroke-miterlimit="10" stroke-dasharray="" stroke-dashoffset="0" style="mix-blend-mode: normal"><path d="M65.58407,225.55911v-12.36701h4.19221v12.36701z" stroke-width="0"/><path d="M81.36271,242.77218v-12.36701h4.19221v12.36701z" stroke-width="0"/><path d="M77.74642,195.33038h-12.36701v-4.19221h12.36701z" stroke-width="0"/><path d="M43.08121,221.38905h-12.36701v-4.19221h12.36701z" stroke-width="0"/><path d="M43.08121,221.38905h-12.36701v-4.19221h12.36701z" stroke-width="0"/><path d="M88.28012,170.68683h-12.36701v-4.1922h12.36701z" stroke-width="0"/><path d="M41.01299,151.92671v-12.36701h4.19221v12.36701z" stroke-width="0"/><path d="M29.48443,180.85293v-12.36701h4.19221v12.36701z" stroke-width="0"/><path d="M66.27104,165.44657h-12.36701v-4.19221h12.36701z" stroke-width="0"/><path d="M57.99143,143.33268v-12.36701h4.19221v12.36701z" stroke-width="0"/><path d="M-11.58109,16.43392v-22.38494h501.17398v22.38494z" stroke-width="0"/><path d="M464.72075,368.37498v-371.83876h26.11577v371.83876z" stroke-width="0"/><path d="M-26.50438,373.36139v-27.35937h513.61006v27.35938z" stroke-width="0"/><path d="M-14.06831,367.03578v-378.0568h26.11577v378.0568z" stroke-width="0"/><path d="M266.98708,124.53223v-113.16831h29.84659v113.16832z" stroke-width="0"/><path d="M64.27899,78.51873v-16.1669h138.04047v16.1669z" stroke-width="0"/><path d="M101.58725,121.78664v-8.34182h114.41193v8.34183z" stroke-width="0"/><path d="M92.88198,255.11106v-141.7713h19.89772v141.7713z" stroke-width="0"/><path d="M150.08793,220.29005v-63.424h32.33381v63.424z" stroke-width="0"/><path d="M173.06206,356.29005v-59.424h26.33381v59.424z" stroke-width="0"/><path d="M260.64105,307.34254v-99.48863h12.95759v99.48863z" stroke-width="0"/><path d="M401.73036,266.12646v-99.48863h12.95759v99.48863z" stroke-width="0"/><path d="M318.78685,283.16982v-54.39769h9.50946v54.39769z" stroke-width="0"/><path d="M239.32814,274.96521v-12.43608h51.90115v12.43608z" stroke-width="0"/><path d="M300.90835,231.53149v-12.43608h51.90115v12.43608z" stroke-width="0"/><path d="M372.34542,278.14468v-12.43608h57.20596v12.43608z" stroke-width="0"/><path d="M44.41177,267.54714v-12.43608h158.5874v12.43608z" stroke-width="0"/><path d="M321.41177,172.54715v-12.43608h93.2236v12.43608z" stroke-width="0"/><path d="M452.82758,172.54715v-12.43608h23.894v12.43608z" stroke-width="0"/><path d="M8.41176,311.54714v-12.43608h112.36263v12.43608z" stroke-width="0"/><path d="" stroke-width="0.5"/><path d="" stroke-width="0.5"/><path d="" stroke-width="0.5"/><path d="" stroke-width="0.5"/><path d="" stroke-width="0.5"/><path d="M-9.46048,16.43392v-22.38494h501.17398v22.38494z" stroke-width="0"/><path d="M466.84137,368.37498v-371.83876h26.11577v371.83876z" stroke-width="0"/><path d="M-24.38376,373.36139v-27.35937h513.61006v27.35938z" stroke-width="0"/><path d="M-11.94769,367.03578v-378.0568h26.11577v378.0568z" stroke-width="0"/><path d="M269.10772,124.53223v-113.16831h29.84659v113.16832z" stroke-width="0"/><path d="M66.3996,78.51873v-16.1669h138.04047v16.1669z" stroke-width="0"/><path d="M103.70787,121.78664v-8.34182h114.41193v8.34183z" stroke-width="0"/><path d="M95.0026,255.11106v-141.7713h19.89772v141.7713z" stroke-width="0"/><path d="M152.20855,220.29005v-63.424h32.33381v63.424z" stroke-width="0"/><path d="M175.18268,356.29005v-59.424h26.33381v59.424z" stroke-width="0"/><path d="M262.76167,307.34254v-99.48863h12.95759v99.48863z" stroke-width="0"/><path d="M403.85098,266.12646v-99.48863h12.95759v99.48863z" stroke-width="0"/><path d="M320.90747,283.16982v-54.39769h9.50946v54.39769z" stroke-width="0"/><path d="M241.44877,274.96521v-12.43608h51.90115v12.43608z" stroke-width="0"/><path d="M303.02898,231.53149v-12.43608h51.90115v12.43608z" stroke-width="0"/><path d="M374.46604,278.14468v-12.43608h57.20596v12.43608z" stroke-width="0"/><path d="M46.53239,267.54714v-12.43608h158.5874v12.43608z" stroke-width="0"/><path d="M323.5324,172.54715v-12.43608h93.2236v12.43608z" stroke-width="0"/><path d="M454.9482,172.54715v-12.43608h23.894v12.43608z" stroke-width="0"/><path d="M10.53238,311.54714v-12.43608h112.36263v12.43608z" stroke-width="0"/><path d="" stroke-width="0.5"/><path d="" stroke-width="0.5"/><path d="" stroke-width="0.5"/><path d="" stroke-width="0.5"/><path d="" stroke-width="0.5"/><path d="M47.41471,202.60834v-12.36701h4.19221v12.36701z" stroke-width="0"/><path d="M375.28681,128.20261v-79.32927h25.55574v79.32927z" stroke-width="0"/></g></g></svg>