<svg version="1.1" xmlns="http://www.w3.org/2000/svg" xmlns:xlink="http://www.w3.org/1999/xlink" width="200" height="212.63971" viewBox="0,0,200,212.63971"><g transform="translate(-140,-80)"><g data-paper-data="{&quot;isPaintingLayer&quot;:true}" fill-rule="nonzero" stroke-linecap="butt" stroke-linejoin="miter" stroke-miterlimit="10" stroke-dasharray="" stroke-dashoffset="0" style="mix-blend-mode: normal"><path d="M301.83484,281.62353c0,6.08407 -27.30165,11.01618 -60.97994,11.01618c-33.67829,0 -60.97994,-4.9321 -60.97994,-11.01618c0,-6.08407 27.30165,-11.01618 60.97994,-11.01618c33.67829,0 60.97994,4.9321 60.97994,11.01618z" fill="#000000" stroke="none" stroke-width="0"/><path d="M140,280v-200h200v200z" fill="none" stroke="#000000" stroke-width="0"/><g stroke="none" stroke-width="1"><g><path d="M246.67397,156.81129c-2.31311,0.77226 -10.08544,0.41577 -10.32261,0.23717c0,-1.95955 -0.41504,-4.03842 4.5091,-4.33488c4.92414,-0.29719 5.39847,2.31604 5.81351,4.09771z" fill="#82783c"/><path d="M244.65733,155.02961c0.47433,0.05929 0.83082,0.41577 0.83082,0.83155c0,0.59365 -0.47507,0.65294 -0.83082,0.65294c-0.9494,-0.05929 -0.9494,-0.89084 -0.77152,-1.12801c0.17788,-0.2379 0.47507,-0.35648 0.77152,-0.35648c0,0 0.05929,0 0,0z" fill="#645a1e"/><path d="M238.13085,155.14819c0.47507,0.05929 0.83082,0.41577 0.83082,0.83155c0,0.59365 -0.47433,0.65367 -0.83082,0.65367c-0.94867,-0.06002 -0.94867,-0.89084 -0.77079,-1.12874c0.17788,-0.23717 0.47433,-0.35648 0.77079,-0.35648c0,0 0.06002,0 0,0z" fill="#645a1e"/><path d="M266.48984,164.71026v1.54378c-1.24586,0 -5.16204,0.11858 -7.59446,0.05929v-1.54378c2.13596,-0.05929 5.45849,-0.11932 7.59446,-0.05929z" fill="#fab414"/><path d="M268.09145,168.74795c-1.18657,0.29719 -2.31384,0.4758 -3.50041,0.59438l-1.77948,-7.95826c1.12727,-0.53436 3.38109,-0.53436 3.38109,-0.53436z" fill="#ffc800"/><path d="M223.65563,164.76955v1.54378c-2.43242,0.05929 -6.34787,-0.05929 -7.59446,-0.05929v-1.54378c2.07667,-0.06002 5.3992,0 7.59446,0.05929z" fill="#fab414"/><path d="M216.35836,160.84971c0,0 2.25455,0 3.38109,0.53436l-1.77948,7.95826c-1.18657,-0.11858 -2.31384,-0.29719 -3.50041,-0.59438z" fill="#ffc800"/><path d="M263.81952,177.95353l-44.73228,0.17788c0.59292,-5.28501 1.60161,-15.38143 3.14466,-18.58831c1.83877,-3.80052 5.57635,-2.90968 9.31392,-2.96971c3.97474,-0.05929 22.06968,-0.77152 27.64676,0.77226c1.48302,1.4252 4.09332,15.79721 4.62695,20.60789z" fill="#a0aa1e"/><path d="M230.6557,164.65023c-1.42373,-2.25674 0.77152,-5.76008 5.81424,-6.11656c3.67828,-0.29719 7.35656,-0.2379 10.97555,0.17788c2.72888,0.47507 6.76364,3.68194 3.97474,6.65165c-1.18657,1.24732 -5.63564,1.4252 -10.50048,1.3659c-4.5091,-0.05929 -8.83958,0.17788 -10.26405,-2.07887z" fill="#000000"/><path d="M252.90399,161.08688c-0.06002,-0.35575 0.11858,-0.71223 0.47433,-0.77152c1.24586,-0.71296 2.43242,-1.48522 3.79686,-2.31604l0.53363,0.23717c-0.05929,0.17861 -0.05929,0.35648 -0.05929,0.41577l-2.90676,1.78168c0.17788,0.05929 0.29646,0.11858 0.47433,0.17788c0.59365,0.06002 1.18657,0.06002 1.83951,0.06002c0.41504,0 0.83082,0.11858 0.9494,0.53436c-0.05929,0.35648 -0.29719,0.47507 -0.53436,0.47507c-0.23717,0 -0.47433,-0.05929 -0.65221,-0.05929c-1.06798,-0.11932 -2.07667,-0.2379 -3.14466,-0.35648c-0.29646,0 -0.53363,-0.05929 -0.77079,-0.17861z" fill="#000000"/><path d="M223.71492,160.31535l-0.05929,-0.59438c0.11858,-0.05929 0.23717,-0.11858 0.29646,-0.11858c0.41504,0.05929 0.83082,0.11858 1.24586,0.11858c0.23717,0 0.47433,0 0.83082,0c-0.53436,-0.59365 -1.18657,-0.71223 -1.66163,-1.30588l0.41577,-0.59438c1.42373,0.65367 2.49171,1.84097 4.03403,2.31604c0.05929,0.17861 0.05929,0.35648 0.11858,0.59438l-0.77152,0.29646c-1.42373,-0.53436 -2.90676,-0.41577 -4.44907,-0.71223z" fill="#000000"/></g><g><path d="M309.44264,127.29501c-1.54305,1.54451 -0.41577,5.52364 -0.2379,7.4832c0.2379,2.73181 0.53436,5.46362 0.83082,8.19543c0.53436,4.92926 1.06798,20.66718 -0.17788,25.47786l-25.21434,-24.64631c-0.41504,-4.69136 -0.77079,-15.08498 2.90749,-18.58831c1.48302,-1.4252 4.86485,-3.32619 6.8222,-1.6631c2.6103,2.25674 -0.88938,3.62265 -2.90676,3.74123c-0.23717,1.72239 0.35575,3.20687 0.35575,4.81068c1.83951,0.05929 3.79686,-0.35648 5.69566,-0.35648c1.30515,-0.89084 -0.53436,-5.22572 0.59292,-6.82952c1.36517,-1.90026 6.76364,-2.37533 6.70435,-0.59365c-0.05929,1.78168 -0.65294,1.90026 -1.54232,2.01885l-2.43242,0.2379c-0.83082,0.59365 -0.05929,3.74123 0,4.63207c0.53363,0.83155 4.15261,0.59365 5.04272,0.11858c-0.23717,-1.90026 0.17788,-4.69136 1.54232,-6.35446c1.18657,-1.4252 5.45776,-1.84097 5.63637,-0.29719c0.17788,1.54451 -0.05929,1.18803 -0.35648,1.6631c-1.06798,0.65367 -2.13523,0.71296 -3.26251,0.95013z" fill="#d2e614"/><path d="M294.96668,137.27211c1.54232,2.67252 -2.13596,3.68267 -3.97474,3.97913c-0.59365,0.77226 -0.9494,3.91984 -0.29719,4.75139c1.24586,0.71223 3.08536,0.17788 4.4498,0.29719c1.6609,0.17788 3.26324,0.65294 4.74626,1.3659c3.08463,1.4252 5.81424,3.32546 7.53444,6.35446c3.14466,5.52291 3.44111,14.1934 2.6103,20.36999c-4.2712,0.53436 -8.60242,-0.11858 -12.87362,0c-3.44111,0.05929 -7.35656,0.71296 -10.73838,0.17788c-0.41504,-4.09771 -0.23717,-8.19543 -0.71223,-12.29314c-0.41504,-3.91984 -1.24586,-7.72036 -1.48302,-11.69949c-0.17788,-3.029 -0.89011,-8.55191 1.18657,-11.04582c1.95809,-2.19745 7.0601,-4.27632 9.55182,-2.25748z" fill="#a0aa1e"/><path d="M285.82991,168.45149h25.4515c0.23717,6.35446 -2.43242,18.58831 -6.94079,25.71502c-3.20395,5.10714 -13.05222,12.88752 -19.22222,12.17456c-0.35575,-1.48449 -1.36444,-25.00279 -1.36444,-25.00279c0.83008,-2.19672 1.48302,-4.45346 1.95736,-6.77023c0.2379,-2.07814 0.29719,-4.09771 0.11858,-6.17585z" fill="#824600"/></g><g><path d="M167.29485,126.52348c-0.29719,-0.47507 -0.53436,-0.11932 -0.35648,-1.6631c0.17861,-1.54451 4.4498,-1.12874 5.63637,0.29719c1.36444,1.66236 1.77948,4.45346 1.54232,6.35446c0.83082,0.47507 4.5091,0.71223 4.98343,-0.11932c0.05929,-0.89084 0.83082,-4.03842 0,-4.63207l-2.43242,-0.23717c-0.88938,-0.11932 -1.48302,-0.2379 -1.54232,-2.01958c-0.05929,-1.78168 5.33918,-1.30661 6.70435,0.59365c1.12727,1.6038 -0.71223,5.93942 0.65221,6.83026c1.8988,0 3.85616,0.41577 5.69566,0.35575c0,-1.60307 0.59292,-3.08756 0.35575,-4.80995c-2.01738,-0.11932 -5.51705,-1.48522 -2.90676,-3.74196c1.95736,-1.66236 5.33918,0.2379 6.8222,1.6038c3.67828,3.50407 3.32253,13.89695 2.90749,18.58831l-25.21434,24.58702c-1.24586,-4.81068 -0.71223,-20.54859 -0.17788,-25.41856c0.29646,-2.73181 0.59292,-5.46362 0.83082,-8.19543c0.17788,-1.95955 1.30515,-5.93868 -0.2379,-7.48246c-1.18657,-0.2379 -2.25382,-0.2379 -3.26251,-0.89084z" fill="#d2e614"/><path d="M194.52584,139.64817c2.07667,2.49391 1.36444,8.01755 1.18657,11.04582c-0.23717,3.91984 -1.06798,7.78039 -1.48302,11.69949c-0.47507,4.09771 -0.29719,8.19616 -0.71223,12.29387c-3.38182,0.53436 -7.29727,-0.11932 -10.73838,-0.17861c-4.2712,-0.11858 -8.60242,0.53436 -12.87362,0c-0.83082,-6.17585 -0.53436,-14.84708 2.6103,-20.36999c1.72019,-3.029 4.39051,-4.92926 7.53444,-6.35446c1.48302,-0.71296 3.08536,-1.18803 4.74626,-1.3659c1.42373,-0.11858 3.26324,0.41577 4.5091,-0.29719c0.65221,-0.89084 0.29646,-3.97913 -0.29719,-4.75065c-1.83877,-0.29719 -5.51705,-1.30661 -3.97474,-3.97913c2.43242,-1.96029 7.59373,0.11858 9.49253,2.25674z" fill="#a0aa1e"/><path d="M196.48393,178.84437c0,0 3.44038,27.08093 3.08463,28.56542c-6.17,0.71296 -20.76453,-8.07611 -23.96775,-13.12469c-4.56839,-7.18601 -7.23798,-19.59773 -6.94152,-25.8929h25.5108c-0.17788,2.07814 -0.17788,4.2163 0.05929,6.29517c0.17788,1.66236 1.00869,3.08829 2.25455,4.15701z" fill="#824600"/></g><g><path d="M266.48984,260.02786l18.1535,2.79183c0,0.29646 -2.72888,16.33156 -2.72888,16.33156l7.17869,0.11858c0,0 -0.05929,0.47507 -0.11858,0.65367c-2.37313,0.05929 -23.01908,-0.05929 -23.01908,-0.05929c0,0 0.41577,-19.47988 0.53436,-19.83636z" fill="#a0aa1e"/><path d="M261.62499,271.19299c-1.12727,-9.85852 -1.00869,-37.05803 -1.00869,-38.66184l28.59543,12.35317c0.23717,1.6631 -1.18657,16.56946 -1.48302,19.77634c-0.17788,2.07814 -0.05929,4.33488 -0.17788,6.47304z" fill="#005a5a"/><path d="M259.25186,266.67951h30.55352v9.79923h-30.55352z" fill="#006482"/></g><g><path d="M221.75683,279.86422c0,0 -20.64595,0.11858 -23.01908,0.05929c-0.05929,-0.17861 -0.11858,-0.65367 -0.11858,-0.65367l7.17869,-0.11858c0,0 -2.72888,-16.03511 -2.72888,-16.33156l18.15424,-2.79183c0.05929,0.35648 0.53363,19.83636 0.53363,19.83636z" fill="#a0aa1e"/><path d="M202.00098,270.24286c-1.54232,-6.11656 -2.78817,-24.17124 -2.78817,-24.17124l25.92584,-7.48246l0.05929,31.59442z" fill="#005a5a"/><path d="M198.44129,267.86754h29.0112v9.79923h-29.0112z" fill="#006482"/></g><g><path d="M196.54322,194.4637c-0.29719,-5.34504 -0.05929,-15.73792 -0.05929,-15.73792c0,0 5.39847,-2.67252 9.72896,-4.27632c4.33122,-1.60307 10.44192,-2.49391 10.44192,-2.49391c0,0 44.73228,-0.35648 50.7244,-0.11932c5.3992,0.2379 14.41666,2.49464 17.44273,5.8201c0.17788,1.01015 1.72019,12.23458 1.77948,12.47175c0.71223,3.68194 1.42373,16.56946 1.42373,16.56946l-46.09672,18.11324l-44.37726,-17.34099c0,0 -0.59292,-5.40433 -1.00796,-13.00611z" fill="#a0640a"/><path d="M247.80125,212.04259l-5.63564,33.43539l-43.01209,0.53436l-1.66163,-38.54252c0,0 14.71312,-19.53917 18.03565,-20.78649c0.05929,0.17861 2.66959,0 2.66959,0c0,0 11.98424,-0.11858 23.96848,-0.11858z" fill="#008264"/><path d="M242.2249,186.56473c10.85697,0 22.06968,0.05929 25.86655,0.29719c3.85616,2.13816 19.93372,19.83563 19.93372,19.83563l1.18657,38.18677l-47.04612,0.59365z" fill="#00a08c"/><path d="M269.93022,170.58965c1.00869,6.11656 0.83082,26.66515 0.83082,26.66515l-5.69566,-0.05929l-0.59292,-26.60586z" fill="#005a5a"/><path d="M268.15074,192.68202c0.89011,0.05929 1.60161,0.83155 1.54232,1.72239c0,1.24659 -0.9494,1.48449 -1.72019,1.4252c-1.95809,-0.05929 -2.01738,-1.84097 -1.60161,-2.37606c0.41504,-0.53436 1.00796,-0.83082 1.6609,-0.83082c0,0 0.05929,0 0.11858,0.05929z" fill="#ffc800"/><path d="M218.55361,170.58965l-0.59365,26.60586l-5.63637,0.05929c0,0 -0.17788,-20.54859 0.83082,-26.66515z" fill="#005a5a"/><path d="M214.99392,192.62273c0.65221,0 1.24586,0.29646 1.6609,0.83082c0.41504,0.53509 0.35575,2.31677 -1.60161,2.37606c-0.77152,0.05929 -1.72092,-0.17861 -1.72092,-1.4252c-0.05929,-0.89084 0.65294,-1.6631 1.54305,-1.72239c0,-0.05929 0.05929,-0.05929 0.11858,-0.05929z" fill="#ffc800"/><path d="M252.01389,201.05533c0.05929,0.83155 0.05929,1.6631 0.05929,2.49464c0.05929,3.62265 -0.89011,8.25472 -4.4498,10.2743c-3.08463,1.78168 -9.6704,1.54378 -12.57716,-0.59438c-2.43242,-2.61249 -4.09332,-8.13614 -3.14466,-12.17456z" fill="#005a5a"/><path d="M230.47783,197.2548h22.78191v6.41375h-22.78191z" fill="#006482"/><path d="M242.2249,199.03648c0.9494,0.05929 1.6609,0.89084 1.60161,1.84097c0,1.30661 -0.89011,1.54378 -1.72019,1.48449c-2.01738,-0.11858 -2.13596,-1.90026 -1.66163,-2.49391c0.41577,-0.53436 1.06798,-0.89084 1.72092,-0.83155z" fill="#fab414"/></g></g></g></g></svg>