<svg version="1.1" xmlns="http://www.w3.org/2000/svg" xmlns:xlink="http://www.w3.org/1999/xlink" width="136.71843" height="148.77137" viewBox="0,0,136.71843,148.77137"><g transform="translate(-127.02511,-127.00467)"><g data-paper-data="{&quot;isPaintingLayer&quot;:true}" fill-rule="nonzero" stroke-width="0.9025" stroke-miterlimit="10" stroke-dasharray="" stroke-dashoffset="0" style="mix-blend-mode: normal"><g><path d="M204.1882,261.10172c1.5614,-0.4548 3.4792,0 3.4792,0c0,0 0.8492,5.1605 1.1091,7.0269c0.2609,1.8691 1.2274,4.7941 1.2274,4.7941c0,0 0.4883,0.2924 0.352,1.0559c-0.1408,0.7617 -1.8185,0.9097 -3.9204,1.3095c-2.0993,0.3953 -3.8167,0.056 -4.147,-0.6958c-0.3331,-0.7464 0.2879,-1.0956 0.2879,-1.0956c0,0 0.9783,-6.1632 0.0875,-8.2841c0.0063,0.0063 -0.4684,-3.5333 1.5243,-4.1109v0v0v0v0v0z" fill="#be1e2d" stroke="#231f20" stroke-linecap="round" stroke-linejoin="round"/><path d="M197.4547,261.67932v0v0v0v0v0v0c2.8149,1.2915 3.1145,3.8799 3.1181,3.8844c-0.5595,2.2256 1.2256,7.396 1.2256,7.396c0,0 0.667,0.2446 0.4585,1.0343c-0.213,0.7914 -1.8538,1.3925 -3.9927,1.3257c-2.1362,-0.0713 -3.8158,0.0415 -4.073,-0.6922c-0.2572,-0.7337 0.1814,-1.0965 0.1814,-1.0965c0,0 0.0497,-1.7662 0.0163,-3.6542c-0.0352,-1.8818 -0.3439,-7.0504 -0.3439,-7.0504c0,0 1.5659,-1.9936 3.4097,-1.1471z" fill="#be1e2d" stroke="#231f20" stroke-linecap="round" stroke-linejoin="round"/><g><path d="M208.3145,254.48012v0v0v0v0v0v0c0.416,2.8086 -0.2527,7.9817 -3.4693,9.7975c-3.184,1.7924 -6.5602,1.5523 -10.0592,-0.8357c-2.8998,-1.981 -2.8303,-7.6396 -2.527,-10.8074v0c0,0 0.0189,-7.3256 6.1848,-8.2281c6.1641,-0.9025 9.0268,4.7174 9.5042,8.2245c0.1499,0.6191 0.2762,1.2481 0.3665,1.8492z" fill="#be1e2d" stroke="#000000" stroke-linecap="butt" stroke-linejoin="miter"/><path d="M206.615,262.52862v0v0v0v0v0v0l-0.0162,0.1426c-0.472,0.6534 -1.0541,1.2075 -1.7536,1.6028c-2.9493,1.6606 -6.062,1.5776 -9.2858,-0.342l-0.0334,-0.1444c0,0 -1.7093,-9.3174 4.2319,-9.7335c6.7461,-0.4675 6.8996,6.915 6.8571,8.4745z" fill="#e6e7e8" stroke="#231f20" stroke-linecap="round" stroke-linejoin="round"/></g><path d="M194.3221,255.43042c0,0 -1.1074,-0.2454 -2.1434,0.1769c-0.9567,0.389 -1.556,0.7247 -1.556,0.7247c-0.1182,0.1083 -0.2093,0.2229 -0.2418,0.3484l0.1164,0.0722l1.0631,0.7698c0,0 1.5903,-0.638 1.8014,0.3159c0.1201,0.5388 -0.3158,1.037 -0.7193,1.3727c0.3565,0.7771 0.4161,1.6209 -0.2075,2.4232c-2.7734,3.5676 -7.8328,-2.1976 -7.4375,-6.4195c0.1353,-1.4584 2.7571,-2.9818 5.2958,-4.1253c0,0 4.0432,-1.8393 5.0044,-1.8393" fill="#be1e2d" stroke="#000000" stroke-linecap="round" stroke-linejoin="miter"/><path d="M205.2189,249.24922c0.9602,0 5.0043,1.8393 5.0043,1.8393c2.5379,1.1435 5.1605,2.6669 5.2959,4.1253c0.3953,4.2219 -4.665,9.9871 -7.4375,6.4195c-0.6236,-0.8023 -0.5641,-1.6461 -0.2076,-2.4232c-0.4034,-0.3366 -0.8393,-0.8339 -0.7193,-1.3727c0.2112,-0.9539 1.8014,-0.3159 1.8014,-0.3159l1.0632,-0.7698l0.1164,-0.0722c-0.0316,-0.1255 -0.1236,-0.2401 -0.2419,-0.3484c0,0 -0.5992,-0.3357 -1.5568,-0.7247c-1.0361,-0.4223 -2.1434,-0.1769 -2.1434,-0.1769" fill="#be1e2d" stroke="#000000" stroke-linecap="round" stroke-linejoin="miter"/><g><g stroke="#000000" stroke-linecap="round" stroke-linejoin="round"><path d="M244.2078,224.24272l-0.5361,1.5532c-2.9737,7.841 -7.2011,12.3535 -7.2011,12.3535c0,0 0.1517,-1.3998 0.0704,-3.6488l-0.1317,-0.0461c-0.3818,1.1841 -1.0063,2.7111 -2.0478,4.5974c-2.2779,4.1424 -8.9726,7.6153 -8.9726,7.6153c0,0 0.416,-1.4242 0.6768,-3.7544l-0.0947,-0.3565c-0.7265,0.5577 -1.4792,1.0721 -2.2382,1.5712c-0.2239,0.148 -0.4477,0.2924 -0.6751,0.4323c-0.6922,0.4305 -1.3971,0.8412 -2.1164,1.2238c-0.2843,0.1498 -0.5812,0.2888 -0.8673,0.4323c-0.5252,0.2626 -1.0577,0.5099 -1.5983,0.7509c-0.3962,0.1733 -0.7969,0.3475 -1.2039,0.5081c-0.4224,0.1697 -0.8547,0.3222 -1.2852,0.481c-0.7924,0.2834 -1.5965,0.5478 -2.4178,0.7915c-0.268,0.0794 -0.537,0.1589 -0.8086,0.2329c-0.5858,0.1615 -1.1769,0.3185 -1.778,0.4575l0.0028,0.0018c-3.018,0.7022 -6.2192,1.1607 -9.646,1.3727c-3.7074,0.2275 -7.0692,0.1905 -10.2081,-0.0279v0c-2.4837,-0.1733 -4.8086,-0.4711 -7.0098,-0.8746c-0.1065,-0.0189 -0.2139,-0.0388 -0.3213,-0.0568c-0.6804,-0.13 -1.3501,-0.2672 -2.0071,-0.4143c-0.2292,-0.0541 -0.4486,-0.111 -0.6769,-0.1669c-0.8727,-0.2067 -1.7211,-0.4341 -2.5577,-0.6769c-0.5288,-0.1534 -1.0541,-0.3105 -1.5676,-0.4774c-0.3051,-0.0957 -0.611,-0.1977 -0.9097,-0.2997c-0.8159,-0.2815 -1.6245,-0.5676 -2.4088,-0.8763l-0.1363,0.1318c0.296,2.1209 1.0271,3.2598 1.611,3.804c1.1904,1.1092 3.4818,1.3727 3.4818,1.3727c0,0 -7.0043,0.9801 -10.8182,-4.4267c-0.4053,-0.5758 -0.8141,-1.1715 -1.2022,-1.805l-0.1669,-0.3628c-0.8285,-0.2771 -1.6679,-0.6453 -2.4964,-1.1191c-5.0521,-2.9106 -5.6866,-5.3113 -5.6866,-5.3113l0.1056,0.88c0.4864,2.2932 0.9612,3.7417 0.9612,3.7417c0,0 -6.0468,-3.8266 -8.7399,-9.561c-2.1714,-4.6317 -2.3438,-7.433 -2.3582,-7.9068l-0.2031,-1.6823c-0.1308,-6.5955 0.2789,-13.9915 1.185,-21.2683l0.056,-0.1941c0.8077,-5.6252 0.0244,-14.9454 7.488,-24.4803c13.9879,-17.865 28.2763,-17.244 36.822,-30.4467c6.285,-9.7127 4.6705,-20.8514 4.6705,-20.8514c0,0 3.8545,5.4575 5.3942,8.6622c1.4873,3.1236 3.0793,7.1496 3.0793,7.1496l0.0515,-0.0343c0.0352,-0.1173 0.0668,-0.2373 0.0938,-0.3573c0.4206,-1.8691 0.2536,-4.6326 0.2536,-4.6326c0,0 3.675,10.7705 9.6081,17.8316c5.9276,7.0558 14.4977,9.0747 25.3196,33.2445c1.3465,3.0035 2.5983,5.5314 3.2679,8.3319l0.3033,1.6128c0.9449,5.0395 0.5749,18.9633 -1.4088,24.9784v0v0v0v0v0zM174.8949,200.57112c0,0 -7.0088,7.2813 -6.5468,17.411c0.4089,8.9636 2.7319,11.7325 3.9837,12.4256c1.2869,0.7085 3.2824,0.2888 3.2824,0.2888c0,0 -5.6443,2.9891 -10.2452,-1.0667c-3.0775,-2.7111 -6.4267,-6.2083 -7.3644,-16.0754M233.2189,216.71502c0,0 0.871,2.4936 -1.2526,7.7028c-2.388,5.8699 -7.4267,7.6866 -7.4267,7.6866c0,0 4.1876,-9.0439 0.6733,-17.5455c-1.5325,-3.7138 -6.2652,-6.4817 -11.2055,-8.4347c-6.6947,-2.6516 -13.7703,-3.8068 -13.7703,-3.8068M236.44,234.35442c-0.3773,1.1985 -1.0099,2.7634 -2.0821,4.6993c-2.2779,4.1433 -8.9736,7.6153 -8.9736,7.6153c0,0 1.2112,-4.1551 0.7988,-9.8761M159.4323,220.82592c-0.6877,1.2761 -1.2165,2.6443 -1.5125,4.0883c-1.8592,9.0088 1.4124,18.9326 1.4124,18.9326c0,0 -6.045,-3.8247 -8.7398,-9.561c-2.389,-5.0919 -2.3583,-7.9745 -2.3583,-7.9745M243.669,225.80052c-2.9756,7.8409 -7.2011,12.3534 -7.2011,12.3534c0,0 0.8728,-7.9529 -2.6488,-16.4553c-0.1606,-0.3845 -0.3384,-0.7581 -0.5289,-1.1209M200.2398,202.31742c0,0 1.1985,0.3186 4.3609,2.8357c3.1623,2.517 4.3257,5.2633 4.3257,5.2633c0,0 -9.3391,-2.4602 -14.5077,-4.3184c-5.1641,-1.8601 -22.5905,-6.6063 -22.5905,-6.6063M170.6703,239.75672c2.5315,3.9764 5.165,6.1397 5.165,6.1397c0,0 -6.1939,1.9178 -11.8841,-1.3573c-5.0522,-2.9106 -5.6867,-5.3112 -5.6867,-5.3112M225.9655,242.55992c-6.6748,5.1352 -14.7748,7.6523 -24.6229,8.2588c-11.7442,0.7238 -20.327,-0.9928 -27.6643,-3.8709M173.4698,246.42352c0.222,2.5432 1.0397,3.8618 1.6814,4.4574c1.1913,1.1092 3.4827,1.3718 3.4827,1.3718c0,0 -7.0061,0.9829 -10.8191,-4.4249c-0.4053,-0.5776 -0.8141,-1.1706 -1.2022,-1.805M200.9167,202.61882c0,0 25.5786,3.12 25.5786,17.0817" fill="#be1e2d"/><path d="M231.5078,225.73642c-0.9539,10.0403 -12.496,20.5156 -29.3872,21.5029c-14.9111,0.88 -36.9484,-5.8256 -40.1459,-18.1736c-0.3177,-1.2409 -0.4865,-2.4395 -0.5325,-3.5919l0.324,0.2391c1.1317,1.657 2.3871,2.8492 3.6028,3.9205c4.6009,4.054 10.2452,1.0649 10.2452,1.0649c0,0 -1.9955,0.4215 -3.2824,-0.2861c-1.2518,-0.694 -3.5748,-3.4629 -3.9837,-12.4265c-0.462,-10.1324 6.5468,-17.411 6.5468,-17.411l0.0243,-0.2329c5.2454,1.4531 15.6954,4.3871 19.4977,5.7562c5.1695,1.8609 14.5067,4.3184 14.5067,4.3184c0,0 -1.1633,-2.7463 -4.3256,-5.2633c-1.583,-1.2599 -2.6723,-1.9675 -3.3655,-2.3619l0.6507,0.102c0,0 19.7215,2.9142 23.3333,11.6657c3.5143,8.5034 -0.6706,17.5455 -0.6706,17.5455c0,0 4.2905,-1.5487 6.8247,-6.3951l0.1372,0.0271v0v0v0v0v0z" fill="#e6e7e8"/></g><g stroke="#000000" stroke-linecap="round" stroke-linejoin="miter"><path d="M238.4796,207.40842c0,0 9.0864,-10.1766 9.5927,-10.6594c0.5072,-0.4801 4.2634,-5.0865 15.0871,-6.6596c0,0 -6.9511,30.9134 -23.1455,37.9854c-0.0009,-0.0009 1.5396,-8.8463 -1.5343,-20.6664v0v0v0v0v0zM238.541,207.65662c-0.2329,-0.9765 -0.9395,-2.703 -0.9395,-2.703M239.2368,230.44472c0,0 0.6209,-1.4828 0.7744,-2.3708" fill="#be1e2d"/><path d="M246.4676,223.21572c0,0 -1.6236,-1.2464 -1.8104,-5.3464c-0.12,-2.5433 0.9973,-7.1812 0.9973,-7.1812l-0.0921,0.148c0.7085,-0.8195 1.4558,-1.777 2.1326,-2.8275c1.1471,-1.777 2.4891,-4.4421 3.7192,-7.0693l0.1905,-0.3619c0,0 3.2526,-4.7571 9.9943,-5.3591l0.0776,0.0425c-1.4206,4.6993 -3.7373,11.5917 -6.3031,16.3c-2.8772,5.2823 -6.2083,9.118 -9.0286,11.7515l0.1227,-0.0966v0v0v0v0v0zM242.8468,213.48582c0,0 2.3655,-2.3122 2.8077,-2.7977" fill="#929497"/></g><g stroke="#000000" stroke-linecap="round" stroke-linejoin="miter"><path d="M150.7539,228.07392c-16.1917,-7.072 -23.1446,-37.9845 -23.1446,-37.9845c10.8255,1.574 14.5817,6.1804 15.0871,6.6596c0.5054,0.481 9.5936,10.6585 9.5936,10.6585c-3.0767,11.821 -1.5361,20.6664 -1.5361,20.6664v0v0v0v0v0zM153.1654,204.95362c0,0 -0.7058,1.7265 -0.9395,2.703M150.7539,228.07392c0.1543,0.888 0.7762,2.3708 0.7762,2.3708" fill="#be1e2d"/><path d="M144.4193,223.31322c-2.8204,-2.6353 -6.1497,-6.471 -9.0286,-11.7515c-2.5668,-4.7083 -4.8826,-11.6007 -6.3031,-16.3l0.0776,-0.0425c6.7426,0.6029 9.9943,5.3591 9.9943,5.3591l0.1904,0.3619c1.2301,2.6281 2.5721,5.2932 3.7192,7.0693c0.6769,1.0505 1.4242,2.008 2.1326,2.8275l-0.0902,-0.148c0,0 1.1173,4.6379 0.9972,7.1812c-0.1868,4.1 -1.8086,5.3464 -1.8086,5.3464l0.1192,0.0966v0v0v0v0v0zM145.1124,210.68812c0.4422,0.4846 2.8077,2.7977 2.8077,2.7977" fill="#929497"/></g><path d="M186.9992,238.79192c0,0 5.5522,-7.0133 13.7315,-7.0133c8.1785,0 13.7316,5.2598 13.7316,5.2598" fill="none" stroke="#231f20" stroke-linecap="round" stroke-linejoin="miter"/><path d="M220.6588,219.93332v0v0v0v0v0v0c-0.1588,0.805 -0.6416,1.2861 -1.0387,1.5758c0.1011,0.2536 0.1516,0.5324 0.0812,0.8176c-0.1769,0.7247 -0.8971,1.1724 -1.6362,0.991c-2.8113,-0.694 -6.4529,-0.9449 -7.183,-0.1995c-0.2645,0.2681 -0.6128,0.4025 -0.9639,0.4025c-0.3439,0 -0.6859,-0.1308 -0.9503,-0.3916c-0.5325,-0.5235 -0.5424,-1.38 -0.0172,-1.9142c1.4151,-1.4368 4.3988,-1.3998 6.7877,-1.0858c0.1164,-0.1001 0.3015,-0.305 0.3186,-0.5875c0.028,-0.4964 0.4142,-0.9106 0.9494,-0.8546c0.4946,0.0252 0.8773,0.4476 0.852,0.9467c-0.0172,0.314 -0.0948,0.5785 -0.1922,0.8212c0.1182,0.0235 0.231,0.0461 0.3366,0.0704c0.0966,-0.1444 0.2121,-0.2725 0.3808,-0.3465c0.028,-0.0145 0.426,-0.2121 0.5054,-0.5984c0.0975,-0.4882 0.5659,-0.814 1.0614,-0.7084c0.4882,0.0992 0.8023,0.5712 0.7084,1.0613z" fill="#231f20" stroke="none" stroke-linecap="butt" stroke-linejoin="miter"/><path d="M188.3611,221.04522v0v0v0v0v0v0c0.7193,0.2012 1.1371,0.9467 0.9341,1.6678c-0.2013,0.7211 -0.9431,1.139 -1.6678,0.9413c-0.0416,-0.0135 -4.2409,-1.1543 -8.3464,0.0424c-0.1263,0.0361 -0.2509,0.0551 -0.3772,0.0551c-0.5857,0 -1.1281,-0.3863 -1.2996,-0.9765c-0.1029,-0.3439 -0.0524,-0.6986 0.1029,-0.9964c-0.2527,-0.222 -0.4937,-0.509 -0.6598,-0.9043c-0.194,-0.4585 0.0199,-0.9891 0.4811,-1.1841c0.4548,-0.1886 0.9873,0.0172 1.1832,0.4793c0.1552,0.3682 0.6046,0.4738 0.61,0.4756c0.1327,0.0298 0.2491,0.0902 0.3493,0.1696c0.1336,-0.027 0.2681,-0.0568 0.3998,-0.0794c-0.139,-0.2094 -0.268,-0.4449 -0.3456,-0.7328c-0.1273,-0.4837 0.1588,-0.9747 0.6416,-1.1047c0.4865,-0.1326 0.9765,0.1616 1.1038,0.6417c0.102,0.3854 0.5216,0.5587 0.5253,0.5605c0.1958,0.0668 0.3402,0.2021 0.4458,0.3628c3.2327,-0.1507 5.7751,0.5415 5.9195,0.5821z" fill="#231f20" stroke="none" stroke-linecap="butt" stroke-linejoin="miter"/></g></g></g></g></svg>