<svg version="1.1" xmlns="http://www.w3.org/2000/svg" xmlns:xlink="http://www.w3.org/1999/xlink" width="102.41519" height="179.2972" viewBox="0,0,102.41519,179.2972"><defs><linearGradient x1="208.60613" y1="180.6092" x2="291.52403" y2="180.6092" gradientUnits="userSpaceOnUse" id="color-1"><stop offset="0" stop-color="#ffffff" stop-opacity="0"/><stop offset="1" stop-color="#ffffff"/></linearGradient><linearGradient x1="189.10883" y1="179.7108" x2="272.45438" y2="179.7108" gradientUnits="userSpaceOnUse" id="color-2"><stop offset="0" stop-color="#fffdc1"/><stop offset="1" stop-color="#fffdc1" stop-opacity="0"/></linearGradient></defs><g transform="translate(-189.10883,-90.51198)"><g data-paper-data="{&quot;isPaintingLayer&quot;:true}" fill-rule="nonzero" stroke="none" stroke-linecap="butt" stroke-linejoin="miter" stroke-miterlimit="10" stroke-dasharray="" stroke-dashoffset="0" style="mix-blend-mode: normal"><g stroke-width="1"><path d="M214.526,221.54801c2.752,0.072 1.424,5.375 1.424,5.375c-2.076,7.067 -7.94,9.617 -12.652,6.879c-4.96,-2.877 -5.812,-11.021 -4.4,-16.047c0.352,0.724 0.168,2.141 1.076,2.061c0.908,-0.081 0.476,-2.494 0.828,-2.53c0.748,-0.076 0.12,2.229 1.284,2.506c0.172,-0.549 0.252,-2.073 0.652,-2.15c0.4,-0.076 0.26,7.732 1.6,10.534c0.66,1.364 1.528,2.453 3.156,2.401c1.628,-0.052 3.424,-1.289 4.556,-3.654c0,0 -0.276,-5.447 2.476,-5.375z" fill="#be0a3c"/><path d="M201.55,221.28001c1.328,-0.424 2,0.428 2.376,-0.148c0.376,-0.576 0.072,-1.649 0.624,-1.625c0.552,0.024 0.384,1.901 0.276,2.325c-0.476,1.893 -1.948,2.25 -1.948,2.25c-2.848,1.388 -2.656,-2.378 -1.328,-2.802z" fill="#82001e"/></g><path d="M252.438,248.45301c0,0 -4.4,0.212 -4.608,0.084c-0.688,-0.42 0,-0.648 0,-0.648l1.864,0.072l-1.092,-19.705c0,0 -0.584,-7.208 2.376,-7.748c2.96,-0.54 3.124,3.602 3.124,3.602z" fill="#82001e" stroke-width="1"/><path d="M231.054,248.54101c-0.208,-0.068 -3.768,0.104 -3.964,0.104c-0.34,-0.268 -0.224,-0.52 -0.096,-0.8c0.504,-0.28 1.084,0.004 1.64,-0.164c0.268,-1.597 -5.004,-20.854 -6.4,-25.712c0,0 -1.448,-4.727 3.64,-4.603c5.088,0.124 4.472,6.403 4.472,6.403c0.372,5.091 1.028,24.476 0.708,24.772z" fill="#82001e" stroke-width="1"/><g stroke-width="1"><path d="M259.83,240.88601l-0.032,0.06c-0.688,1.296 -1.692,2.621 -1.888,2.401c-0.292,-0.316 0.212,-1.917 0.212,-1.917l1.668,-5.067c0.14,-0.22 0.828,3.15 0.828,3.15z" fill="#82001e"/><path d="M261.43,217.62601c2.752,0.209 2.656,5.915 2.656,5.915c0.148,6.103 -0.256,21.018 -0.652,21.07c-0.396,0.052 -0.416,-2.061 -1.072,-2.497c-0.652,0.28 -0.484,2.786 -0.96,2.682c-0.476,-0.105 -0.06,-3.33 -1.048,-2.602c-0.412,0.316 0.036,2.946 -0.968,2.718c-0.156,-3.234 0.012,-6.452 -0.156,-9.689c-0.06,-1.141 -0.412,-8.44 -0.232,-11.682c0,0 -0.32,-6.123 2.432,-5.915z" fill="#be0a3c"/></g><g stroke-width="1"><path d="M238.794,129.768c0,0 14.144,14.343 14.288,15.608c-1.484,0.044 -24.456,4.122 -24.456,4.122l-19.896,-5.243z" fill="#82001e"/><path d="M253.71,123.10101c0,0 -9.8,1.525 -11.2,1.425c-3.008,-0.208 -14.344,-0.705 -15.036,-1.505c-0.404,-0.488 -0.152,-5.759 -0.152,-6.091l26.156,0.4c0.14,0.657 0.232,5.771 0.232,5.771z" fill="#be0a3c"/><path d="M208.73,144.25901l18.744,-21.21c0,0 12.692,3.602 15,6.123c-4.208,2.797 -33.744,15.087 -33.744,15.087z" fill="#ffc800"/><path d="M271.618,145.20001c-1.348,0.184 -15.456,2.257 -15.456,2.257l-8.424,-2.429c0,0 -14.488,-15.636 -20.332,-22.011c2,-0.704 26.304,0.084 26.304,0.084c0,0 15.612,18.321 17.908,22.099z" fill="#f01446"/><path d="M271.274,227.76701l-22.672,0.501l-11.376,-37.767l10.512,-45.473l23.88,0.172c0,0 0.312,52.653 0.12,62.106c-0.088,3.885 -0.464,20.461 -0.464,20.461z" fill="#be0a3c"/><path d="M248.61,228.27601c0,0 -10.168,-0.092 -12.288,-0.176c-4.58,-0.181 -9.148,-0.245 -13.728,-0.361c-2.276,-0.06 -4.536,-0.264 -6.8,-0.352c-1.188,-0.048 -3.924,-0.108 -3.924,-0.108c0,0 -0.3,-5.531 -0.336,-6.803c-0.068,-2.389 -0.076,-4.766 -0.204,-7.168c-0.512,-9.664 -2.856,-64.374 -2.6,-69.049c5.008,-0.096 39.008,0.769 39.008,0.769z" fill="#f01446"/><path d="M241.138,216.40201c0,0 -6.432,-0.068 -7.772,-0.128c-2.896,-0.132 -5.788,-0.176 -8.684,-0.26c-1.436,-0.04 -2.864,-0.188 -4.296,-0.252c-0.752,-0.032 -1.984,0.272 -2.48,-0.573c-0.496,-0.844 -2.164,-59.08 -2,-62.43c3.172,-0.068 24.672,0.553 24.672,0.553z" fill="#ffffff"/></g><path d="M249.3792,91.4112c20.59238,-0.18574 37.82952,12.8249 41.23576,30.04215c0.37749,1.90806 1.08134,114.87348 0.87043,116.42036c-2.43138,17.83235 -19.65109,31.74364 -40.69968,31.9335c-21.25085,0.19168 -38.92846,-13.67046 -41.51975,-31.7064c-0.19798,-1.378 -0.80969,-113.00621 -0.62578,-114.45706c2.27856,-17.97563 19.57291,-32.04163 40.73902,-32.23255z" fill="url(#color-1)" stroke-width="0"/><path d="M229.90652,268.90825c-20.59263,-0.15444 -37.61251,-13.44804 -40.73388,-30.71921c-0.34592,-1.91403 0.81636,-114.87567 1.05279,-116.41886c2.72562,-17.78975 20.17276,-31.4147 41.22162,-31.25684c21.25112,0.15938 38.69733,14.31164 40.99034,32.38793c0.17519,1.38108 -1.05713,113.00417 -1.26497,114.45178c-2.57518,17.93554 -20.09952,31.71394 -41.2659,31.5552z" fill="url(#color-2)" stroke-width="0"/></g></g></svg>