<svg version="1.1" xmlns="http://www.w3.org/2000/svg" xmlns:xlink="http://www.w3.org/1999/xlink" width="200" height="204.56219" viewBox="0,0,200,204.56219"><g transform="translate(-140,-80)"><g data-paper-data="{&quot;isPaintingLayer&quot;:true}" fill-rule="nonzero" stroke-linejoin="miter" stroke-miterlimit="10" stroke-dasharray="" stroke-dashoffset="0" style="mix-blend-mode: normal"><path d="M270.97856,277.58477c0,3.85352 -13.28798,6.97742 -29.67953,6.97742c-16.39155,0 -29.67953,-3.12389 -29.67953,-6.97742c0,-3.85352 13.28798,-6.97742 29.67953,-6.97742c16.39155,0 29.67953,3.12389 29.67953,6.97742z" fill="#000000" stroke="none" stroke-width="0" stroke-linecap="butt"/><path d="M140,280v-200h200v200z" fill="none" stroke="none" stroke-width="0" stroke-linecap="butt"/><g stroke-width="0.90608"><path d="M235.14222,266.88776v0v0v0v0v0v0v0v0v0v0v0v0v0v0v0v0c3.08598,1.18244 4.30427,1.8266 3.86933,4.29816c-0.32684,1.85476 1.24621,5.92593 1.24621,5.92593c0,0 0.76329,0.22048 0.50172,0.83942c-0.26157,0.62695 -2.15646,1.04413 -4.61247,0.91223c-2.4553,-0.1311 -4.38453,-0.1016 -4.6626,-0.6946c-0.27878,-0.59015 0.23294,-0.86464 0.23294,-0.86464c0,0 0.09525,-1.39936 0.09819,-2.90317c0,-1.50381 -0.23793,-5.61829 -0.23793,-5.61829c0,0 0.47943,-3.07757 3.56462,-1.89505z" fill="#9a8479" stroke="#000000" stroke-linecap="butt"/><path d="M243.10937,267.43754v0v0v0v0v0v0v0v0v0v0v0v0v0v0v0v0c2.32055,-1.06649 3.73093,-1.24304 4.32719,0.00214c0,0 1.16317,2.18477 1.74801,4.46027c0.58333,2.27487 1.00185,4.89196 1.00185,4.89196c0,0 0.77542,0.41432 0.76971,0.82364c-0.00428,0.40853 -0.67224,1.20909 -4.19173,1.30926c-3.51886,0.09581 -4.77228,-0.4857 -4.88054,-1.02105c-0.11175,-0.53471 0.30106,-0.58222 0.30106,-0.58222c0,0 0.0487,-0.58079 0,-1.98523c-0.04735,-1.40507 -0.62782,-3.99266 -0.62782,-3.99266c0,0 -0.76757,-2.84115 1.55227,-3.90613z" fill="#9a8479" stroke="#000000" stroke-linecap="butt"/><path d="M237.81039,255.77515v0v0v0v0v0v0v0v0v0v0v0v0v0v0v0v0c6.41266,-0.49863 8.86154,3.24182 8.8594,3.24182c0.52313,0.96632 1.17031,2.32888 1.43973,3.57398c0.07455,0.34373 0.11968,0.73069 0.13189,1.14572c0,0 -0.03799,1.44115 -0.17702,1.88141c-0.58333,1.84318 -1.53434,3.86084 -3.80905,4.77379c-3.57184,1.43822 -7.37232,1.26167 -11.32184,-0.62838c-1.33297,-0.63694 -2.12204,-1.72072 -2.54849,-2.95432c-0.30384,-0.88844 -0.43423,-2.04637 -0.43423,-2.04637c-0.18709,-1.92535 0.1476,-3.80533 0.32605,-4.62318c0,0 1.12161,-3.86513 7.53356,-4.36447z" fill="#9a8479" stroke="#000000" stroke-linecap="butt"/><path d="M250.68164,257.88132c2.37361,1.06435 4.86833,2.49821 4.99729,3.87163c0.36412,3.89828 -4.28563,9.22685 -6.83333,5.9303c-0.57405,-0.74148 -0.52107,-1.5211 -0.19352,-2.23735c-0.37125,-0.31129 -0.76828,-0.76812 -0.66082,-1.26675c0.19423,-0.8813 1.65624,-0.29258 1.65624,-0.29258l0.97536,-0.70618l0.10755,-0.07059c-0.14696,-0.57001 -1.39396,-0.94824 -2.28042,-1.15143c0,0 -5.04606,-4.77522 2.23164,-4.07704v0v0v0v0v0v0v0v0v0v0v0v0v0v0v0v0z" fill="#9a8479" stroke="#000000" stroke-linecap="butt"/><path d="M227.3536,258.43047v0v0v0v0v0v0v0v0v0v0v0v0v0v0v0v0c7.27771,-0.69825 2.23164,4.07697 2.23164,4.07546c-0.88653,0.20319 -2.13346,0.58293 -2.28042,1.15294l0.10755,0.06916l0.97679,0.70761c0,0 1.46051,-0.59015 1.65474,0.29115c0.10897,0.49863 -0.28948,0.95546 -0.66074,1.26675c0.32747,0.71618 0.38196,1.49588 -0.1928,2.23735c-2.5477,3.29798 -7.19744,-2.03202 -6.83261,-5.9303c0.12753,-1.37192 2.62225,-2.80736 4.99586,-3.87012z" fill="#9a8479" stroke="#000000" stroke-linecap="butt"/><g><path d="M204.62958,244.79657v0v0v0v0v0v0v0v0v0v0v0v0v0v0v0v0c-0.03791,-0.0663 -1.14231,-1.92241 -1.14231,-1.9217c-3.06377,-4.94669 -3.74315,-16.13354 -3.47658,-19.62543l0.02371,-0.16711c0.87004,-14.79905 7.71201,-22.69784 11.75321,-26.87862c9.17188,-9.49563 23.0737,-9.88187 23.0737,-9.88187l0.49307,9.60809c0,0 -0.02649,-2.76342 5.56634,-7.59336c5.5914,-4.83065 13.86025,-4.12527 13.86025,-4.12527l-4.38739,12.03857c0,0 2.5864,-3.74989 4.70558,-5.11966c3.75822,-2.4254 6.93588,-1.3835 6.93588,-1.3835l-0.87646,7.46726c0,0 5.59283,7.29214 9.87346,14.14546c0.91588,1.46201 1.97793,2.94203 2.65088,4.64475c2.44745,6.18607 2.80149,17.21145 0.05663,22.67262c-0.47301,0.96704 -0.98972,1.9052 -1.52578,2.8275c-0.13903,0.23777 -0.27949,0.47269 -0.42066,0.70475c-0.49022,0.81135 -1.00265,1.60683 -1.54085,2.3771c-0.07305,0.10382 -0.13832,0.21263 -0.21208,0.31494c-0.6099,0.85814 -1.25422,1.68464 -1.92431,2.48806c-0.15981,0.19384 -0.32819,0.38053 -0.49157,0.57357c-0.57405,0.66296 -1.16817,1.30783 -1.77949,1.92757c-0.14046,0.14554 -0.27735,0.29321 -0.41924,0.43232c-0.73458,0.72204 -1.5,1.41014 -2.28835,2.06803c-0.17551,0.14411 -0.35547,0.28243 -0.53241,0.42368c-0.66153,0.53035 -1.34447,1.03834 -2.04542,1.52181c-0.20208,0.13768 -0.39846,0.2825 -0.60197,0.41797c-0.85568,0.56493 -1.73,1.09528 -2.63446,1.58526c-0.16052,0.08859 -0.33184,0.16647 -0.49593,0.25221c-0.77257,0.40496 -1.56305,0.77605 -2.36996,1.12121c-3.41567,1.45551 -7.1244,2.40446 -11.1069,2.69276c-4.55077,0.3293 -8.67088,0.1909 -12.39253,-0.29694c-0.92088,-0.12103 -1.81598,-0.26514 -2.68744,-0.42725c-0.1656,-0.03387 -0.33041,-0.0663 -0.4945,-0.09874c-0.88297,-0.17512 -1.75078,-0.36316 -2.58355,-0.57714c-0.00508,-0.00222 -0.0115,-0.00365 -0.01721,-0.00508c-0.83419,-0.21184 -1.63618,-0.45033 -2.41874,-0.70325c-0.1376,-0.04473 -0.27806,-0.08867 -0.41424,-0.13332c-0.7525,-0.24642 -1.48565,-0.51163 -2.19302,-0.79334c-0.12396,-0.04608 -0.24436,-0.10088 -0.3676,-0.1499c-0.69738,-0.28171 -1.37747,-0.57572 -2.03035,-0.88772c-0.02506,-0.01515 -0.05227,-0.02379 -0.07669,-0.03743c-0.66859,-0.32216 -1.30648,-0.65717 -1.92709,-1.00161c-0.1154,-0.06488 -0.23071,-0.12753 -0.34326,-0.19241c-0.59697,-0.3408 -1.1753,-0.68881 -1.72643,-1.04769c-0.08383,-0.05472 -0.16417,-0.11096 -0.24729,-0.16425c-0.52385,-0.34881 -1.02985,-0.70333 -1.51356,-1.06506c-0.0502,-0.03387 -0.10461,-0.06987 -0.15267,-0.10802c-0.5045,-0.38125 -0.98107,-0.77106 -1.44115,-1.16373c-0.08962,-0.07495 -0.17702,-0.15132 -0.26307,-0.22699c-0.44858,-0.39203 -0.87932,-0.7847 -1.28499,-1.18823c-0.04656,-0.04394 -0.08883,-0.09081 -0.13396,-0.13475c-0.38275,-0.38331 -0.74465,-0.76884 -1.0879,-1.15437c-0.04735,-0.05615 -0.10176,-0.11024 -0.15053,-0.16497c-0.35039,-0.40567 -1.1094,-1.36763 -1.16817,-1.44401c-0.30598,-0.40639 -0.59697,-0.81214 -0.86068,-1.21559c-0.01578,-0.02522 -0.03157,-0.04973 -0.04656,-0.07495c-0.25229,-0.38838 -0.48308,-0.77106 -0.69738,-1.15223z" fill="#9a8479" stroke="#000000" stroke-linecap="butt"/><path d="M258.62159,223.20622v0v0v0v0v0v0v0v0v0v0v0v0v0v0v0v0c0,0 8.31612,9.45748 5.74685,19.26797c-2.56776,9.80835 -17.91866,13.96383 -29.71422,13.21808c-15.59248,-0.98718 -22.82069,-10.32712 -20.25436,-19.24053c2.56856,-8.9142 23.2113,-13.08119 23.2113,-13.08119l-3.38982,6.40442c0,0 2.67031,-0.41511 4.82669,-1.65521c2.15646,-1.23859 4.52071,-2.89016 4.52071,-2.89016l-4.93852,7.0385c0,0 6.52306,-0.06916 12.17181,-2.34403c5.64874,-2.27122 7.81956,-6.71785 7.81956,-6.71785z" fill="#e6e7e8" stroke="#000000" stroke-linecap="butt"/><g stroke="#000000"><path d="M269.26397,218.09235c0,0 13.38732,-7.56378 16.44673,-1.132c3.06084,6.43106 -2.41374,13.9682 -13.83733,20.78764c0.00071,0 0.253,-11.19684 -2.6094,-19.65564v0v0v0v0v0v0v0v0v0zM269.26397,218.09235c-0.24007,-0.99004 -1.03056,-2.88223 -1.03056,-2.88223M271.57739,239.49179l0.14331,-1.81082" fill="#9a8479" stroke-linecap="round"/><path d="M271.7207,237.68026c0.07455,-2.07382 0.07241,-5.48854 -0.39346,-9.75283c-0.26728,-2.48092 -0.7847,-5.04114 -1.31576,-7.25177l0.00143,0.00286c7.84176,-2.00751 14.82063,5.28249 14.82063,5.28249h0.00286c-3.91945,6.54416 -13.05263,11.53843 -13.05263,11.53843l-0.06305,0.18083v0v0v0v0v0v0v0v0v0v0v0v0v0v0v0v0z" fill="#ee4036" stroke-linecap="butt"/></g><g stroke="#000000"><path d="M206.432,242.68103c-11.11975,-4.45028 -17.11961,-10.46845 -15.4383,-16.7907c1.68123,-6.32225 14.64638,-1.49588 14.64638,-1.49588c-1.18895,8.13593 0.79192,18.28658 0.79192,18.28658v0v0v0v0v0v0v0v0v0zM206.09302,221.61382c0,0 -0.39846,1.84247 -0.45294,2.78063M206.55604,242.59451l0.41131,1.62706" fill="#9a8479" stroke-linecap="round"/><path d="M206.47284,242.44033c0,0 -8.81919,-3.14165 -13.29548,-8.49401l0.00214,-0.00071c0,0 4.99372,-7.70503 12.20766,-7.08244l0.00071,-0.00222c-0.11968,2.09253 -0.17274,4.50144 -0.01792,6.80002c0.26157,3.95157 0.79549,7.05865 1.18609,8.93355l-0.0832,-0.15418v0v0v0v0v0v0v0v0v0v0v0v0v0v0v0v0z" fill="#ee4036" stroke-linecap="butt"/></g><path d="M232.13087,239.46443c-0.18852,0 -0.37554,-0.04901 -0.55113,-0.15204c-2.1751,-1.30569 -6.44066,-2.33903 -6.48365,-2.35053c-0.57833,-0.13618 -0.9338,-0.72197 -0.79549,-1.30204c0.1361,-0.58293 0.71665,-0.93888 1.29498,-0.80056c0.18844,0.04465 4.6296,1.1205 7.08918,2.59544c0.50957,0.30701 0.67509,0.96989 0.37268,1.48366c-0.20208,0.33723 -0.55898,0.52607 -0.92659,0.52607v0v0v0v0v0v0v0v0v0v0v0v0v0v0v0v0v0z" fill="#231f20" stroke="none" stroke-linecap="butt"/><path d="M250.24377,239.37433c-0.34825,0 -0.69016,-0.17004 -0.89724,-0.48427c-0.32755,-0.49641 -0.19352,-1.16658 0.30098,-1.49731c0.44937,-0.29972 4.43688,-2.94282 6.12104,-3.4746c0.56969,-0.18297 1.17031,0.13626 1.34804,0.70618c0.17774,0.57001 -0.13546,1.17816 -0.70238,1.35685c-1.04991,0.33073 -3.97957,2.14654 -5.57491,3.21303c-0.18487,0.12174 -0.39132,0.18011 -0.59554,0.18011v0v0v0v0v0v0v0v0v0v0v0v0v0v0v0v0v0z" fill="#231f20" stroke="none" stroke-linecap="butt"/><path d="M231.18914,247.92815c0,0 4.40817,-5.59878 10.90403,-5.59878c6.49443,0 10.90403,4.19942 10.90403,4.19942" fill="none" stroke="#231f20" stroke-linecap="round"/></g></g></g></g></svg>