<svg version="1.1" xmlns="http://www.w3.org/2000/svg" xmlns:xlink="http://www.w3.org/1999/xlink" width="200" height="200" viewBox="0,0,200,200"><defs><radialGradient cx="240" cy="205.05276" r="43.85753" gradientUnits="userSpaceOnUse" id="color-1"><stop offset="0" stop-color="#ffffff"/><stop offset="1" stop-color="#ffffff" stop-opacity="0"/></radialGradient></defs><g transform="translate(-140,-80)"><g data-paper-data="{&quot;isPaintingLayer&quot;:true}" fill-rule="nonzero" stroke-linecap="butt" stroke-linejoin="miter" stroke-miterlimit="10" stroke-dasharray="" stroke-dashoffset="0" style="mix-blend-mode: normal"><path d="M196.14247,205.05276c0,-24.22184 19.63568,-43.85753 43.85753,-43.85753c24.22184,0 43.85753,19.63568 43.85753,43.85753c0,24.22184 -19.63568,43.85753 -43.85753,43.85753c-24.22184,0 -43.85753,-19.63568 -43.85753,-43.85753z" fill="url(#color-1)" stroke="none" stroke-width="0"/><path d="M140,280v-200h200v200z" fill="none" stroke="#000000" stroke-width="0"/><g><path d="M253.96542,224.64242c-3.1089,2.24786 -13.57153,-7.17127 -13.57153,-7.17127c0,0 -10.50374,9.38185 -13.60422,7.11889c-3.10296,-2.26265 2.62523,-15.12794 2.62523,-15.12794c0,0 -12.16672,-7.09127 -10.97271,-10.7388c1.19378,-3.65022 15.19755,-2.17754 15.19755,-2.17754c0,0 2.98142,-13.7618 6.81985,-13.75693c3.84382,0.00693 6.77186,13.7828 6.77186,13.7828c0,0 14.00969,-1.4174 15.18632,2.23778c1.1841,3.65205 -11.01253,10.69558 -11.01253,10.69558c0,0 5.67686,12.88892 2.56019,15.13742z" fill="#ffff00" stroke="#000000" stroke-width="1.28786"/><path d="M246.78456,215.43455c-1.56559,1.13002 -6.82495,-3.60562 -6.82495,-3.60562c0,0 -5.27697,4.71493 -6.83417,3.57761c-1.5571,-1.13733 1.31871,-7.59934 1.31871,-7.59934c0,0 -6.11089,-3.56668 -5.51317,-5.39693c0.60019,-1.83316 7.63459,-1.09305 7.63459,-1.09305c0,0 1.49945,-6.91654 3.43049,-6.91118c1.92833,0.00288 3.39642,6.92415 3.39642,6.92415c0,0 7.04346,-0.7107 7.63491,1.12441c0.59694,1.83726 -5.52986,5.37428 -5.52986,5.37428c0,0 2.84752,6.47607 1.28702,7.60567z" fill="#ffffff" stroke="none" stroke-width="2.57572"/></g></g></g></svg>